# xmcd
#
# Track frame offsets: 
#        150
#        11660
#        22178
#        34088
#        46362
#        56633
#        66423
#        75888
#        87103
#        99909
#        109675
#        121619
#        133694
#        143103
#        151580
#        160942
#        169705
#        180914
#        190615
#
# Disc length: 2707 seconds
#
# Revision: 1
# Processed by: cddbd v1.5.2PL0 Copyright (c) Steve Scherf et al.
# Submitted via: ExactAudioCopy v1.3
#
DISCID=e10a9113
DTITLE=Bill Monroe - 5 Classic Albiums Plus_CD04
DYEAR=2015
DGENRE=Bluegrass
TTITLE0=Gotta Travel On
TTITLE1=Four Walls
TTITLE2=Roanoke
TTITLE3=Uncle Pen
TTITLE4=Y'all Come
TTITLE5=Happy On My Way
TTITLE6=Blue Moon Of Kentucky
TTITLE7=New Mule Skinner Blues
TTITLE8=Cheyenne
TTITLE9=A Fallen Star
TTITLE10=Plant Some Flowers On My Grave
TTITLE11=Footprints In The Snow
TTITLE12=Panhandle Country
TTITLE13=Scotland
TTITLE14=No One But My Darlin'
TTITLE15=Tomorrow I'll Be Gone
TTITLE16=Dark As The Night, Blue As The Day
TTITLE17=Lonesome Wind Blues
TTITLE18=Come Go With Me
EXTD=
EXTT0=
EXTT1=
EXTT2=
EXTT3=
EXTT4=
EXTT5=
EXTT6=
EXTT7=
EXTT8=
EXTT9=
EXTT10=
EXTT11=
EXTT12=
EXTT13=
EXTT14=
EXTT15=
EXTT16=
EXTT17=
EXTT18=
PLAYORDER=
